<?xml version="1.0" encoding="UTF-8"?><svg aria-hidden="true" version="1.1" viewBox="0 0 512 688" xmlns="http://www.w3.org/2000/svg"><rect width="100%" height="100%" fill="#EEEEEE" /><g transform="translate(0 104)"><g transform="translate(104 0)" fill="#6AF1F1"><path d="M22.25 12c0-1.43-.88-2.67-2.19-3.34.46-1.39.2-2.9-.81-3.91s-2.52-1.27-3.91-.81c-.66-1.31-1.91-2.19-3.34-2.19s-2.67.88-3.33 2.19c-1.4-.46-2.91-.2-3.92.81s-1.26 2.52-.8 3.91c-1.31.67-2.2 1.91-2.2 3.34s.89 2.67 2.2 3.34c-.46 1.39-.21 2.9.8 3.91s2.52 1.26 3.91.81c.67 1.31 1.91 2.19 3.34 2.19s2.68-.88 3.34-2.19c1.39.45 2.9.2 3.91-.81s1.27-2.52.81-3.91c1.31-.67 2.19-1.91 2.19-3.34zm-11.71 4.2L6.8 12.46l1.41-1.42 2.26 2.26 4.8-5.23 1.47 1.36-6.2 6.77z" fill="#6AF1F1"/></g><g transform="translate(144 0)" fill="#6D5E3E"><path d="M22.25 12c0-1.43-.88-2.67-2.19-3.34.46-1.39.2-2.9-.81-3.91s-2.52-1.27-3.91-.81c-.66-1.31-1.91-2.19-3.34-2.19s-2.67.88-3.33 2.19c-1.4-.46-2.91-.2-3.92.81s-1.26 2.52-.8 3.91c-1.31.67-2.2 1.91-2.2 3.34s.89 2.67 2.2 3.34c-.46 1.39-.21 2.9.8 3.91s2.52 1.26 3.91.81c.67 1.31 1.91 2.19 3.34 2.19s2.68-.88 3.34-2.19c1.39.45 2.9.2 3.91-.81s1.27-2.52.81-3.91c1.31-.67 2.19-1.91 2.19-3.34zm-11.71 4.2L6.8 12.46l1.41-1.42 2.26 2.26 4.8-5.23 1.47 1.36-6.2 6.77z" fill="#6D5E3E"/></g><g transform="translate(184 0)" fill="#6DABC7"><path d="M22.25 12c0-1.43-.88-2.67-2.19-3.34.46-1.39.2-2.9-.81-3.91s-2.52-1.27-3.91-.81c-.66-1.31-1.91-2.19-3.34-2.19s-2.67.88-3.33 2.19c-1.4-.46-2.91-.2-3.92.81s-1.26 2.52-.8 3.91c-1.31.67-2.2 1.91-2.2 3.34s.89 2.67 2.2 3.34c-.46 1.39-.21 2.9.8 3.91s2.52 1.26 3.91.81c.67 1.31 1.91 2.19 3.34 2.19s2.68-.88 3.34-2.19c1.39.45 2.9.2 3.91-.81s1.27-2.52.81-3.91c1.31-.67 2.19-1.91 2.19-3.34zm-11.71 4.2L6.8 12.46l1.41-1.42 2.26 2.26 4.8-5.23 1.47 1.36-6.2 6.77z" fill="#6DABC7"/></g><g transform="translate(224 0)" fill="#DB578"><path d="M22.25 12c0-1.43-.88-2.67-2.19-3.34.46-1.39.2-2.9-.81-3.91s-2.52-1.27-3.91-.81c-.66-1.31-1.91-2.19-3.34-2.19s-2.67.88-3.33 2.19c-1.4-.46-2.91-.2-3.92.81s-1.26 2.52-.8 3.91c-1.31.67-2.2 1.91-2.2 3.34s.89 2.67 2.2 3.34c-.46 1.39-.21 2.9.8 3.91s2.52 1.26 3.91.81c.67 1.31 1.91 2.19 3.34 2.19s2.68-.88 3.34-2.19c1.39.45 2.9.2 3.91-.81s1.27-2.52.81-3.91c1.31-.67 2.19-1.91 2.19-3.34zm-11.71 4.2L6.8 12.46l1.41-1.42 2.26 2.26 4.8-5.23 1.47 1.36-6.2 6.77z" fill="#DB578"/></g><g transform="translate(264 0)" fill="#A1B6AF"><path d="M22.25 12c0-1.43-.88-2.67-2.19-3.34.46-1.39.2-2.9-.81-3.91s-2.52-1.27-3.91-.81c-.66-1.31-1.91-2.19-3.34-2.19s-2.67.88-3.33 2.19c-1.4-.46-2.91-.2-3.92.81s-1.26 2.52-.8 3.91c-1.31.67-2.2 1.91-2.2 3.34s.89 2.67 2.2 3.34c-.46 1.39-.21 2.9.8 3.91s2.52 1.26 3.91.81c.67 1.31 1.91 2.19 3.34 2.19s2.68-.88 3.34-2.19c1.39.45 2.9.2 3.91-.81s1.27-2.52.81-3.91c1.31-.67 2.19-1.91 2.19-3.34zm-11.71 4.2L6.8 12.46l1.41-1.42 2.26 2.26 4.8-5.23 1.47 1.36-6.2 6.77z" fill="#A1B6AF"/></g><g transform="translate(304 0)" fill="#D436D5"><path d="M22.25 12c0-1.43-.88-2.67-2.19-3.34.46-1.39.2-2.9-.81-3.91s-2.52-1.27-3.91-.81c-.66-1.31-1.91-2.19-3.34-2.19s-2.67.88-3.33 2.19c-1.4-.46-2.91-.2-3.92.81s-1.26 2.52-.8 3.91c-1.31.67-2.2 1.91-2.2 3.34s.89 2.67 2.2 3.34c-.46 1.39-.21 2.9.8 3.91s2.52 1.26 3.91.81c.67 1.31 1.91 2.19 3.34 2.19s2.68-.88 3.34-2.19c1.39.45 2.9.2 3.91-.81s1.27-2.52.81-3.91c1.31-.67 2.19-1.91 2.19-3.34zm-11.71 4.2L6.8 12.46l1.41-1.42 2.26 2.26 4.8-5.23 1.47 1.36-6.2 6.77z" fill="#D436D5"/></g><g transform="translate(344 0)" fill="#FA86DA"><path d="M22.25 12c0-1.43-.88-2.67-2.19-3.34.46-1.39.2-2.9-.81-3.91s-2.52-1.27-3.91-.81c-.66-1.31-1.91-2.19-3.34-2.19s-2.67.88-3.33 2.19c-1.4-.46-2.91-.2-3.92.81s-1.26 2.52-.8 3.91c-1.31.67-2.2 1.91-2.2 3.34s.89 2.67 2.2 3.34c-.46 1.39-.21 2.9.8 3.91s2.52 1.26 3.91.81c.67 1.31 1.91 2.19 3.34 2.19s2.68-.88 3.34-2.19c1.39.45 2.9.2 3.91-.81s1.27-2.52.81-3.91c1.31-.67 2.19-1.91 2.19-3.34zm-11.71 4.2L6.8 12.46l1.41-1.42 2.26 2.26 4.8-5.23 1.47 1.36-6.2 6.77z" fill="#FA86DA"/></g><g transform="translate(384 0)" fill="#3F50DB"><path d="M22.25 12c0-1.43-.88-2.67-2.19-3.34.46-1.39.2-2.9-.81-3.91s-2.52-1.27-3.91-.81c-.66-1.31-1.91-2.19-3.34-2.19s-2.67.88-3.33 2.19c-1.4-.46-2.91-.2-3.92.81s-1.26 2.52-.8 3.91c-1.31.67-2.2 1.91-2.2 3.34s.89 2.67 2.2 3.34c-.46 1.39-.21 2.9.8 3.91s2.52 1.26 3.91.81c.67 1.31 1.91 2.19 3.34 2.19s2.68-.88 3.34-2.19c1.39.45 2.9.2 3.91-.81s1.27-2.52.81-3.91c1.31-.67 2.19-1.91 2.19-3.34zm-11.71 4.2L6.8 12.46l1.41-1.42 2.26 2.26 4.8-5.23 1.47 1.36-6.2 6.77z" fill="#3F50DB"/></g></g><g transform="translate(0 144)"><g transform="translate(104 0)" fill="#7EA1B"><path d="M22.25 12c0-1.43-.88-2.67-2.19-3.34.46-1.39.2-2.9-.81-3.91s-2.52-1.27-3.91-.81c-.66-1.31-1.91-2.19-3.34-2.19s-2.67.88-3.33 2.19c-1.4-.46-2.91-.2-3.92.81s-1.26 2.52-.8 3.91c-1.31.67-2.2 1.91-2.2 3.34s.89 2.67 2.2 3.34c-.46 1.39-.21 2.9.8 3.91s2.52 1.26 3.91.81c.67 1.31 1.91 2.19 3.34 2.19s2.68-.88 3.34-2.19c1.39.45 2.9.2 3.91-.81s1.27-2.52.81-3.91c1.31-.67 2.19-1.91 2.19-3.34zm-11.71 4.2L6.8 12.46l1.41-1.42 2.26 2.26 4.8-5.23 1.47 1.36-6.2 6.77z" fill="#7EA1B"/></g><g transform="translate(144 0)" fill="#40FD43"><path d="M22.25 12c0-1.43-.88-2.67-2.19-3.34.46-1.39.2-2.9-.81-3.91s-2.52-1.27-3.91-.81c-.66-1.31-1.91-2.19-3.34-2.19s-2.67.88-3.33 2.19c-1.4-.46-2.91-.2-3.92.81s-1.26 2.52-.8 3.91c-1.31.67-2.2 1.91-2.2 3.34s.89 2.67 2.2 3.34c-.46 1.39-.21 2.9.8 3.91s2.52 1.26 3.91.81c.67 1.31 1.91 2.19 3.34 2.19s2.68-.88 3.34-2.19c1.39.45 2.9.2 3.91-.81s1.27-2.52.81-3.91c1.31-.67 2.19-1.91 2.19-3.34zm-11.71 4.2L6.8 12.46l1.41-1.42 2.26 2.26 4.8-5.23 1.47 1.36-6.2 6.77z" fill="#40FD43"/></g><g transform="translate(184 0)" fill="#681FA8"><path d="M22.25 12c0-1.43-.88-2.67-2.19-3.34.46-1.39.2-2.9-.81-3.91s-2.52-1.27-3.91-.81c-.66-1.31-1.91-2.19-3.34-2.19s-2.67.88-3.33 2.19c-1.4-.46-2.91-.2-3.92.81s-1.26 2.52-.8 3.91c-1.31.67-2.2 1.91-2.2 3.34s.89 2.67 2.2 3.34c-.46 1.39-.21 2.9.8 3.91s2.52 1.26 3.91.81c.67 1.31 1.91 2.19 3.34 2.19s2.68-.88 3.34-2.19c1.39.45 2.9.2 3.91-.81s1.27-2.52.81-3.91c1.31-.67 2.19-1.91 2.19-3.34zm-11.71 4.2L6.8 12.46l1.41-1.42 2.26 2.26 4.8-5.23 1.47 1.36-6.2 6.77z" fill="#681FA8"/></g><g transform="translate(224 0)" fill="#4D03F5"><path d="M22.25 12c0-1.43-.88-2.67-2.19-3.34.46-1.39.2-2.9-.81-3.91s-2.52-1.27-3.91-.81c-.66-1.31-1.91-2.19-3.34-2.19s-2.67.88-3.33 2.19c-1.4-.46-2.91-.2-3.92.81s-1.26 2.52-.8 3.91c-1.31.67-2.2 1.91-2.2 3.34s.89 2.67 2.2 3.34c-.46 1.39-.21 2.9.8 3.91s2.52 1.26 3.91.81c.67 1.31 1.91 2.19 3.34 2.19s2.68-.88 3.34-2.19c1.39.45 2.9.2 3.91-.81s1.27-2.52.81-3.91c1.31-.67 2.19-1.91 2.19-3.34zm-11.71 4.2L6.8 12.46l1.41-1.42 2.26 2.26 4.8-5.23 1.47 1.36-6.2 6.77z" fill="#4D03F5"/></g><g transform="translate(264 0)" fill="#E9A07E"><path d="M22.25 12c0-1.43-.88-2.67-2.19-3.34.46-1.39.2-2.9-.81-3.91s-2.52-1.27-3.91-.81c-.66-1.31-1.91-2.19-3.34-2.19s-2.67.88-3.33 2.19c-1.4-.46-2.91-.2-3.92.81s-1.26 2.52-.8 3.91c-1.31.67-2.2 1.91-2.2 3.34s.89 2.67 2.2 3.34c-.46 1.39-.21 2.9.8 3.91s2.52 1.26 3.91.81c.67 1.31 1.91 2.19 3.34 2.19s2.68-.88 3.34-2.19c1.39.45 2.9.2 3.91-.81s1.27-2.52.81-3.91c1.31-.67 2.19-1.91 2.19-3.34zm-11.71 4.2L6.8 12.46l1.41-1.42 2.26 2.26 4.8-5.23 1.47 1.36-6.2 6.77z" fill="#E9A07E"/></g><g transform="translate(304 0)" fill="#BD340F"><path d="M22.25 12c0-1.43-.88-2.67-2.19-3.34.46-1.39.2-2.9-.81-3.91s-2.52-1.27-3.91-.81c-.66-1.31-1.91-2.19-3.34-2.19s-2.67.88-3.33 2.19c-1.4-.46-2.91-.2-3.92.81s-1.26 2.52-.8 3.91c-1.31.67-2.2 1.91-2.2 3.34s.89 2.67 2.2 3.34c-.46 1.39-.21 2.9.8 3.91s2.52 1.26 3.91.81c.67 1.31 1.91 2.19 3.34 2.19s2.68-.88 3.34-2.19c1.39.45 2.9.2 3.91-.81s1.27-2.52.81-3.91c1.31-.67 2.19-1.91 2.19-3.34zm-11.71 4.2L6.8 12.46l1.41-1.42 2.26 2.26 4.8-5.23 1.47 1.36-6.2 6.77z" fill="#BD340F"/></g><g transform="translate(344 0)" fill="#57A681"><path d="M22.25 12c0-1.43-.88-2.67-2.19-3.34.46-1.39.2-2.9-.81-3.91s-2.52-1.27-3.91-.81c-.66-1.31-1.91-2.19-3.34-2.19s-2.67.88-3.33 2.19c-1.4-.46-2.91-.2-3.92.81s-1.26 2.52-.8 3.91c-1.31.67-2.2 1.91-2.2 3.34s.89 2.67 2.2 3.34c-.46 1.39-.21 2.9.8 3.91s2.52 1.26 3.91.81c.67 1.31 1.91 2.19 3.34 2.19s2.68-.88 3.34-2.19c1.39.45 2.9.2 3.91-.81s1.27-2.52.81-3.91c1.31-.67 2.19-1.91 2.19-3.34zm-11.71 4.2L6.8 12.46l1.41-1.42 2.26 2.26 4.8-5.23 1.47 1.36-6.2 6.77z" fill="#57A681"/></g><g transform="translate(384 0)" fill="#AAF4D0"><path d="M22.25 12c0-1.43-.88-2.67-2.19-3.34.46-1.39.2-2.9-.81-3.91s-2.52-1.27-3.91-.81c-.66-1.31-1.91-2.19-3.34-2.19s-2.67.88-3.33 2.19c-1.4-.46-2.91-.2-3.92.81s-1.26 2.52-.8 3.91c-1.31.67-2.2 1.91-2.2 3.34s.89 2.67 2.2 3.34c-.46 1.39-.21 2.9.8 3.91s2.52 1.26 3.91.81c.67 1.31 1.91 2.19 3.34 2.19s2.68-.88 3.34-2.19c1.39.45 2.9.2 3.91-.81s1.27-2.52.81-3.91c1.31-.67 2.19-1.91 2.19-3.34zm-11.71 4.2L6.8 12.46l1.41-1.42 2.26 2.26 4.8-5.23 1.47 1.36-6.2 6.77z" fill="#AAF4D0"/></g></g><g transform="translate(0 184)"><g transform="translate(104 0)" fill="#D55E9A"><path d="M22.25 12c0-1.43-.88-2.67-2.19-3.34.46-1.39.2-2.9-.81-3.91s-2.52-1.27-3.91-.81c-.66-1.31-1.91-2.19-3.34-2.19s-2.67.88-3.33 2.19c-1.4-.46-2.91-.2-3.92.81s-1.26 2.52-.8 3.91c-1.31.67-2.2 1.91-2.2 3.34s.89 2.67 2.2 3.34c-.46 1.39-.21 2.9.8 3.91s2.52 1.26 3.91.81c.67 1.31 1.91 2.19 3.34 2.19s2.68-.88 3.34-2.19c1.39.45 2.9.2 3.91-.81s1.27-2.52.81-3.91c1.31-.67 2.19-1.91 2.19-3.34zm-11.71 4.2L6.8 12.46l1.41-1.42 2.26 2.26 4.8-5.23 1.47 1.36-6.2 6.77z" fill="#D55E9A"/></g><g transform="translate(144 0)" fill="#1AABD3"><path d="M22.25 12c0-1.43-.88-2.67-2.19-3.34.46-1.39.2-2.9-.81-3.91s-2.52-1.27-3.91-.81c-.66-1.31-1.91-2.19-3.34-2.19s-2.67.88-3.33 2.19c-1.4-.46-2.91-.2-3.92.81s-1.26 2.52-.8 3.91c-1.31.67-2.2 1.91-2.2 3.34s.89 2.67 2.2 3.34c-.46 1.39-.21 2.9.8 3.91s2.52 1.26 3.91.81c.67 1.31 1.91 2.19 3.34 2.19s2.68-.88 3.34-2.19c1.39.45 2.9.2 3.91-.81s1.27-2.52.81-3.91c1.31-.67 2.19-1.91 2.19-3.34zm-11.71 4.2L6.8 12.46l1.41-1.42 2.26 2.26 4.8-5.23 1.47 1.36-6.2 6.77z" fill="#1AABD3"/></g><g transform="translate(184 0)" fill="#C3557A"><path d="M22.25 12c0-1.43-.88-2.67-2.19-3.34.46-1.39.2-2.9-.81-3.91s-2.52-1.27-3.91-.81c-.66-1.31-1.91-2.19-3.34-2.19s-2.67.88-3.33 2.19c-1.4-.46-2.91-.2-3.92.81s-1.26 2.52-.8 3.91c-1.31.67-2.2 1.91-2.2 3.34s.89 2.67 2.2 3.34c-.46 1.39-.21 2.9.8 3.91s2.52 1.26 3.91.81c.67 1.31 1.91 2.19 3.34 2.19s2.68-.88 3.34-2.19c1.39.45 2.9.2 3.91-.81s1.27-2.52.81-3.91c1.31-.67 2.19-1.91 2.19-3.34zm-11.71 4.2L6.8 12.46l1.41-1.42 2.26 2.26 4.8-5.23 1.47 1.36-6.2 6.77z" fill="#C3557A"/></g><g transform="translate(224 0)" fill="#F86AAF"><path d="M22.25 12c0-1.43-.88-2.67-2.19-3.34.46-1.39.2-2.9-.81-3.91s-2.52-1.27-3.91-.81c-.66-1.31-1.91-2.19-3.34-2.19s-2.67.88-3.33 2.19c-1.4-.46-2.91-.2-3.92.81s-1.26 2.52-.8 3.91c-1.31.67-2.2 1.91-2.2 3.34s.89 2.67 2.2 3.34c-.46 1.39-.21 2.9.8 3.91s2.52 1.26 3.91.81c.67 1.31 1.91 2.19 3.34 2.19s2.68-.88 3.34-2.19c1.39.45 2.9.2 3.91-.81s1.27-2.52.81-3.91c1.31-.67 2.19-1.91 2.19-3.34zm-11.71 4.2L6.8 12.46l1.41-1.42 2.26 2.26 4.8-5.23 1.47 1.36-6.2 6.77z" fill="#F86AAF"/></g><g transform="translate(264 0)" fill="#3F0D55"><path d="M22.25 12c0-1.43-.88-2.67-2.19-3.34.46-1.39.2-2.9-.81-3.91s-2.52-1.27-3.91-.81c-.66-1.31-1.91-2.19-3.34-2.19s-2.67.88-3.33 2.19c-1.4-.46-2.91-.2-3.92.81s-1.26 2.52-.8 3.91c-1.31.67-2.2 1.91-2.2 3.34s.89 2.67 2.2 3.34c-.46 1.39-.21 2.9.8 3.91s2.52 1.26 3.91.81c.67 1.31 1.91 2.19 3.34 2.19s2.68-.88 3.34-2.19c1.39.45 2.9.2 3.91-.81s1.27-2.52.81-3.91c1.31-.67 2.19-1.91 2.19-3.34zm-11.71 4.2L6.8 12.46l1.41-1.42 2.26 2.26 4.8-5.23 1.47 1.36-6.2 6.77z" fill="#3F0D55"/></g><g transform="translate(304 0)" fill="#67E1AA"><path d="M22.25 12c0-1.43-.88-2.67-2.19-3.34.46-1.39.2-2.9-.81-3.91s-2.52-1.27-3.91-.81c-.66-1.31-1.91-2.19-3.34-2.19s-2.67.88-3.33 2.19c-1.4-.46-2.91-.2-3.92.81s-1.26 2.52-.8 3.91c-1.31.67-2.2 1.91-2.2 3.34s.89 2.67 2.2 3.34c-.46 1.39-.21 2.9.8 3.91s2.52 1.26 3.91.81c.67 1.31 1.91 2.19 3.34 2.19s2.68-.88 3.34-2.19c1.39.45 2.9.2 3.91-.81s1.27-2.52.81-3.91c1.31-.67 2.19-1.91 2.19-3.34zm-11.71 4.2L6.8 12.46l1.41-1.42 2.26 2.26 4.8-5.23 1.47 1.36-6.2 6.77z" fill="#67E1AA"/></g><g transform="translate(344 0)" fill="#CFC35"><path d="M22.25 12c0-1.43-.88-2.67-2.19-3.34.46-1.39.2-2.9-.81-3.91s-2.52-1.27-3.91-.81c-.66-1.31-1.91-2.19-3.34-2.19s-2.67.88-3.33 2.19c-1.4-.46-2.91-.2-3.92.81s-1.26 2.52-.8 3.91c-1.31.67-2.2 1.91-2.2 3.34s.89 2.67 2.2 3.34c-.46 1.39-.21 2.9.8 3.91s2.52 1.26 3.91.81c.67 1.31 1.91 2.19 3.34 2.19s2.68-.88 3.34-2.19c1.39.45 2.9.2 3.91-.81s1.27-2.52.81-3.91c1.31-.67 2.19-1.91 2.19-3.34zm-11.71 4.2L6.8 12.46l1.41-1.42 2.26 2.26 4.8-5.23 1.47 1.36-6.2 6.77z" fill="#CFC35"/></g><g transform="translate(384 0)" fill="#19F86"><path d="M22.25 12c0-1.43-.88-2.67-2.19-3.34.46-1.39.2-2.9-.81-3.91s-2.52-1.27-3.91-.81c-.66-1.31-1.91-2.19-3.34-2.19s-2.67.88-3.33 2.19c-1.4-.46-2.91-.2-3.92.81s-1.26 2.52-.8 3.91c-1.31.67-2.2 1.91-2.2 3.34s.89 2.67 2.2 3.34c-.46 1.39-.21 2.9.8 3.91s2.52 1.26 3.91.81c.67 1.31 1.91 2.19 3.34 2.19s2.68-.88 3.34-2.19c1.39.45 2.9.2 3.91-.81s1.27-2.52.81-3.91c1.31-.67 2.19-1.91 2.19-3.34zm-11.71 4.2L6.8 12.46l1.41-1.42 2.26 2.26 4.8-5.23 1.47 1.36-6.2 6.77z" fill="#19F86"/></g></g><g transform="translate(0 224)"><g transform="translate(104 0)" fill="#2033F0"><path d="M22.25 12c0-1.43-.88-2.67-2.19-3.34.46-1.39.2-2.9-.81-3.91s-2.52-1.27-3.91-.81c-.66-1.31-1.91-2.19-3.34-2.19s-2.67.88-3.33 2.19c-1.4-.46-2.91-.2-3.92.81s-1.26 2.52-.8 3.91c-1.31.67-2.2 1.91-2.2 3.34s.89 2.67 2.2 3.34c-.46 1.39-.21 2.9.8 3.91s2.52 1.26 3.91.81c.67 1.31 1.91 2.19 3.34 2.19s2.68-.88 3.34-2.19c1.39.45 2.9.2 3.91-.81s1.27-2.52.81-3.91c1.31-.67 2.19-1.91 2.19-3.34zm-11.71 4.2L6.8 12.46l1.41-1.42 2.26 2.26 4.8-5.23 1.47 1.36-6.2 6.77z" fill="#2033F0"/></g><g transform="translate(144 0)" fill="#84067E"><path d="M22.25 12c0-1.43-.88-2.67-2.19-3.34.46-1.39.2-2.9-.81-3.91s-2.52-1.27-3.91-.81c-.66-1.31-1.91-2.19-3.34-2.19s-2.67.88-3.33 2.19c-1.4-.46-2.91-.2-3.92.81s-1.26 2.52-.8 3.91c-1.31.67-2.2 1.91-2.2 3.34s.89 2.67 2.2 3.34c-.46 1.39-.21 2.9.8 3.91s2.52 1.26 3.91.81c.67 1.31 1.91 2.19 3.34 2.19s2.68-.88 3.34-2.19c1.39.45 2.9.2 3.91-.81s1.27-2.52.81-3.91c1.31-.67 2.19-1.91 2.19-3.34zm-11.71 4.2L6.8 12.46l1.41-1.42 2.26 2.26 4.8-5.23 1.47 1.36-6.2 6.77z" fill="#84067E"/></g><g transform="translate(184 0)" fill="#B080CF"><path d="M22.25 12c0-1.43-.88-2.67-2.19-3.34.46-1.39.2-2.9-.81-3.91s-2.52-1.27-3.91-.81c-.66-1.31-1.91-2.19-3.34-2.19s-2.67.88-3.33 2.19c-1.4-.46-2.91-.2-3.92.81s-1.26 2.52-.8 3.91c-1.31.67-2.2 1.91-2.2 3.34s.89 2.67 2.2 3.34c-.46 1.39-.21 2.9.8 3.91s2.52 1.26 3.91.81c.67 1.31 1.91 2.19 3.34 2.19s2.68-.88 3.34-2.19c1.39.45 2.9.2 3.91-.81s1.27-2.52.81-3.91c1.31-.67 2.19-1.91 2.19-3.34zm-11.71 4.2L6.8 12.46l1.41-1.42 2.26 2.26 4.8-5.23 1.47 1.36-6.2 6.77z" fill="#B080CF"/></g><g transform="translate(224 0)" fill="#361019"><path d="M22.25 12c0-1.43-.88-2.67-2.19-3.34.46-1.39.2-2.9-.81-3.91s-2.52-1.27-3.91-.81c-.66-1.31-1.91-2.19-3.34-2.19s-2.67.88-3.33 2.19c-1.4-.46-2.91-.2-3.92.81s-1.26 2.52-.8 3.91c-1.31.67-2.2 1.91-2.2 3.34s.89 2.67 2.2 3.34c-.46 1.39-.21 2.9.8 3.91s2.52 1.26 3.91.81c.67 1.31 1.91 2.19 3.34 2.19s2.68-.88 3.34-2.19c1.39.45 2.9.2 3.91-.81s1.27-2.52.81-3.91c1.31-.67 2.19-1.91 2.19-3.34zm-11.71 4.2L6.8 12.46l1.41-1.42 2.26 2.26 4.8-5.23 1.47 1.36-6.2 6.77z" fill="#361019"/></g><g transform="translate(264 0)" fill="#A6C203"><path d="M22.25 12c0-1.43-.88-2.67-2.19-3.34.46-1.39.2-2.9-.81-3.91s-2.52-1.27-3.91-.81c-.66-1.31-1.91-2.19-3.34-2.19s-2.67.88-3.33 2.19c-1.4-.46-2.91-.2-3.92.81s-1.26 2.52-.8 3.91c-1.31.67-2.2 1.91-2.2 3.34s.89 2.67 2.2 3.34c-.46 1.39-.21 2.9.8 3.91s2.52 1.26 3.91.81c.67 1.31 1.91 2.19 3.34 2.19s2.68-.88 3.34-2.19c1.39.45 2.9.2 3.91-.81s1.27-2.52.81-3.91c1.31-.67 2.19-1.91 2.19-3.34zm-11.71 4.2L6.8 12.46l1.41-1.42 2.26 2.26 4.8-5.23 1.47 1.36-6.2 6.77z" fill="#A6C203"/></g><g transform="translate(304 0)" fill="#94D840"><path d="M22.25 12c0-1.43-.88-2.67-2.19-3.34.46-1.39.2-2.9-.81-3.91s-2.52-1.27-3.91-.81c-.66-1.31-1.91-2.19-3.34-2.19s-2.67.88-3.33 2.19c-1.4-.46-2.91-.2-3.92.81s-1.26 2.52-.8 3.91c-1.31.67-2.2 1.91-2.2 3.34s.89 2.67 2.2 3.34c-.46 1.39-.21 2.9.8 3.91s2.52 1.26 3.91.81c.67 1.31 1.91 2.19 3.34 2.19s2.68-.88 3.34-2.19c1.39.45 2.9.2 3.91-.81s1.27-2.52.81-3.91c1.31-.67 2.19-1.91 2.19-3.34zm-11.71 4.2L6.8 12.46l1.41-1.42 2.26 2.26 4.8-5.23 1.47 1.36-6.2 6.77z" fill="#94D840"/></g><g transform="translate(344 0)" fill="#729B08"><path d="M22.25 12c0-1.43-.88-2.67-2.19-3.34.46-1.39.2-2.9-.81-3.91s-2.52-1.27-3.91-.81c-.66-1.31-1.91-2.19-3.34-2.19s-2.67.88-3.33 2.19c-1.4-.46-2.91-.2-3.92.81s-1.26 2.52-.8 3.91c-1.31.67-2.2 1.91-2.2 3.34s.89 2.67 2.2 3.34c-.46 1.39-.21 2.9.8 3.91s2.52 1.26 3.91.81c.67 1.31 1.91 2.19 3.34 2.19s2.68-.88 3.34-2.19c1.39.45 2.9.2 3.91-.81s1.27-2.52.81-3.91c1.31-.67 2.19-1.91 2.19-3.34zm-11.71 4.2L6.8 12.46l1.41-1.42 2.26 2.26 4.8-5.23 1.47 1.36-6.2 6.77z" fill="#729B08"/></g><g transform="translate(384 0)" fill="#8E5361"><path d="M22.25 12c0-1.43-.88-2.67-2.19-3.34.46-1.39.2-2.9-.81-3.91s-2.52-1.27-3.91-.81c-.66-1.31-1.91-2.19-3.34-2.19s-2.67.88-3.33 2.19c-1.4-.46-2.91-.2-3.92.81s-1.26 2.52-.8 3.91c-1.31.67-2.2 1.91-2.2 3.34s.89 2.67 2.2 3.34c-.46 1.39-.21 2.9.8 3.91s2.52 1.26 3.91.81c.67 1.31 1.91 2.19 3.34 2.19s2.68-.88 3.34-2.19c1.39.45 2.9.2 3.91-.81s1.27-2.52.81-3.91c1.31-.67 2.19-1.91 2.19-3.34zm-11.71 4.2L6.8 12.46l1.41-1.42 2.26 2.26 4.8-5.23 1.47 1.36-6.2 6.77z" fill="#8E5361"/></g></g><g transform="translate(0 264)"><g transform="translate(104 0)" fill="#B1CA6C"><path d="M22.25 12c0-1.43-.88-2.67-2.19-3.34.46-1.39.2-2.9-.81-3.91s-2.52-1.27-3.91-.81c-.66-1.31-1.91-2.19-3.34-2.19s-2.67.88-3.33 2.19c-1.4-.46-2.91-.2-3.92.81s-1.26 2.52-.8 3.91c-1.31.67-2.2 1.91-2.2 3.34s.89 2.67 2.2 3.34c-.46 1.39-.21 2.9.8 3.91s2.52 1.26 3.91.81c.67 1.31 1.91 2.19 3.34 2.19s2.68-.88 3.34-2.19c1.39.45 2.9.2 3.91-.81s1.27-2.52.81-3.91c1.31-.67 2.19-1.91 2.19-3.34zm-11.71 4.2L6.8 12.46l1.41-1.42 2.26 2.26 4.8-5.23 1.47 1.36-6.2 6.77z" fill="#B1CA6C"/></g><g transform="translate(144 0)" fill="#96394D"><path d="M22.25 12c0-1.43-.88-2.67-2.19-3.34.46-1.39.2-2.9-.81-3.91s-2.52-1.27-3.91-.81c-.66-1.31-1.91-2.19-3.34-2.19s-2.67.88-3.33 2.19c-1.4-.46-2.91-.2-3.92.81s-1.26 2.52-.8 3.91c-1.31.67-2.2 1.91-2.2 3.34s.89 2.67 2.2 3.34c-.46 1.39-.21 2.9.8 3.91s2.52 1.26 3.91.81c.67 1.31 1.91 2.19 3.34 2.19s2.68-.88 3.34-2.19c1.39.45 2.9.2 3.91-.81s1.27-2.52.81-3.91c1.31-.67 2.19-1.91 2.19-3.34zm-11.71 4.2L6.8 12.46l1.41-1.42 2.26 2.26 4.8-5.23 1.47 1.36-6.2 6.77z" fill="#96394D"/></g><g transform="translate(184 0)" fill="#92C729"><path d="M22.25 12c0-1.43-.88-2.67-2.19-3.34.46-1.39.2-2.9-.81-3.91s-2.52-1.27-3.91-.81c-.66-1.31-1.91-2.19-3.34-2.19s-2.67.88-3.33 2.19c-1.4-.46-2.91-.2-3.92.81s-1.26 2.52-.8 3.91c-1.31.67-2.2 1.91-2.2 3.34s.89 2.67 2.2 3.34c-.46 1.39-.21 2.9.8 3.91s2.52 1.26 3.91.81c.67 1.31 1.91 2.19 3.34 2.19s2.68-.88 3.34-2.19c1.39.45 2.9.2 3.91-.81s1.27-2.52.81-3.91c1.31-.67 2.19-1.91 2.19-3.34zm-11.71 4.2L6.8 12.46l1.41-1.42 2.26 2.26 4.8-5.23 1.47 1.36-6.2 6.77z" fill="#92C729"/></g><g transform="translate(224 0)" fill="#3258E5"><path d="M22.25 12c0-1.43-.88-2.67-2.19-3.34.46-1.39.2-2.9-.81-3.91s-2.52-1.27-3.91-.81c-.66-1.31-1.91-2.19-3.34-2.19s-2.67.88-3.33 2.19c-1.4-.46-2.91-.2-3.92.81s-1.26 2.52-.8 3.91c-1.31.67-2.2 1.91-2.2 3.34s.89 2.67 2.2 3.34c-.46 1.39-.21 2.9.8 3.91s2.52 1.26 3.91.81c.67 1.31 1.91 2.19 3.34 2.19s2.68-.88 3.34-2.19c1.39.45 2.9.2 3.91-.81s1.27-2.52.81-3.91c1.31-.67 2.19-1.91 2.19-3.34zm-11.71 4.2L6.8 12.46l1.41-1.42 2.26 2.26 4.8-5.23 1.47 1.36-6.2 6.77z" fill="#3258E5"/></g><g transform="translate(264 0)" fill="#A64B1C"><path d="M22.25 12c0-1.43-.88-2.67-2.19-3.34.46-1.39.2-2.9-.81-3.91s-2.52-1.27-3.91-.81c-.66-1.31-1.91-2.19-3.34-2.19s-2.67.88-3.33 2.19c-1.4-.46-2.91-.2-3.92.81s-1.26 2.52-.8 3.91c-1.31.67-2.2 1.91-2.2 3.34s.89 2.67 2.2 3.34c-.46 1.39-.21 2.9.8 3.91s2.52 1.26 3.91.81c.67 1.31 1.91 2.19 3.34 2.19s2.68-.88 3.34-2.19c1.39.45 2.9.2 3.91-.81s1.27-2.52.81-3.91c1.31-.67 2.19-1.91 2.19-3.34zm-11.71 4.2L6.8 12.46l1.41-1.42 2.26 2.26 4.8-5.23 1.47 1.36-6.2 6.77z" fill="#A64B1C"/></g><g transform="translate(304 0)" fill="#F4C963"><path d="M22.25 12c0-1.43-.88-2.67-2.19-3.34.46-1.39.2-2.9-.81-3.91s-2.52-1.27-3.91-.81c-.66-1.31-1.91-2.19-3.34-2.19s-2.67.88-3.33 2.19c-1.4-.46-2.91-.2-3.92.81s-1.26 2.52-.8 3.91c-1.31.67-2.2 1.91-2.2 3.34s.89 2.67 2.2 3.34c-.46 1.39-.21 2.9.8 3.91s2.52 1.26 3.91.81c.67 1.31 1.91 2.19 3.34 2.19s2.68-.88 3.34-2.19c1.39.45 2.9.2 3.91-.81s1.27-2.52.81-3.91c1.31-.67 2.19-1.91 2.19-3.34zm-11.71 4.2L6.8 12.46l1.41-1.42 2.26 2.26 4.8-5.23 1.47 1.36-6.2 6.77z" fill="#F4C963"/></g><g transform="translate(344 0)" fill="#DE992C"><path d="M22.25 12c0-1.43-.88-2.67-2.19-3.34.46-1.39.2-2.9-.81-3.91s-2.52-1.27-3.91-.81c-.66-1.31-1.91-2.19-3.34-2.19s-2.67.88-3.33 2.19c-1.4-.46-2.91-.2-3.92.81s-1.26 2.52-.8 3.91c-1.31.67-2.2 1.91-2.2 3.34s.89 2.67 2.2 3.34c-.46 1.39-.21 2.9.8 3.91s2.52 1.26 3.91.81c.67 1.31 1.91 2.19 3.34 2.19s2.68-.88 3.34-2.19c1.39.45 2.9.2 3.91-.81s1.27-2.52.81-3.91c1.31-.67 2.19-1.91 2.19-3.34zm-11.71 4.2L6.8 12.46l1.41-1.42 2.26 2.26 4.8-5.23 1.47 1.36-6.2 6.77z" fill="#DE992C"/></g><g transform="translate(384 0)" fill="#3BD325"><path d="M22.25 12c0-1.43-.88-2.67-2.19-3.34.46-1.39.2-2.9-.81-3.91s-2.52-1.27-3.91-.81c-.66-1.31-1.91-2.19-3.34-2.19s-2.67.88-3.33 2.19c-1.4-.46-2.91-.2-3.92.81s-1.26 2.52-.8 3.91c-1.31.67-2.2 1.91-2.2 3.34s.89 2.67 2.2 3.34c-.46 1.39-.21 2.9.8 3.91s2.52 1.26 3.91.81c.67 1.31 1.91 2.19 3.34 2.19s2.68-.88 3.34-2.19c1.39.45 2.9.2 3.91-.81s1.27-2.52.81-3.91c1.31-.67 2.19-1.91 2.19-3.34zm-11.71 4.2L6.8 12.46l1.41-1.42 2.26 2.26 4.8-5.23 1.47 1.36-6.2 6.77z" fill="#3BD325"/></g></g><text x="50%" text-anchor="middle" style="white-space: pre; fill: #111111; font-family: Arial, sans-serif; font-size: 33.3px;" y="353">Minted at 800.123 gwei</text><g transform="translate(0 400)"><g transform="translate(104 0)" fill="#677A64"><path d="M22.25 12c0-1.43-.88-2.67-2.19-3.34.46-1.39.2-2.9-.81-3.91s-2.52-1.27-3.91-.81c-.66-1.31-1.91-2.19-3.34-2.19s-2.67.88-3.33 2.19c-1.4-.46-2.91-.2-3.92.81s-1.26 2.52-.8 3.91c-1.31.67-2.2 1.91-2.2 3.34s.89 2.67 2.2 3.34c-.46 1.39-.21 2.9.8 3.91s2.52 1.26 3.91.81c.67 1.31 1.91 2.19 3.34 2.19s2.68-.88 3.34-2.19c1.39.45 2.9.2 3.91-.81s1.27-2.52.81-3.91c1.31-.67 2.19-1.91 2.19-3.34zm-11.71 4.2L6.8 12.46l1.41-1.42 2.26 2.26 4.8-5.23 1.47 1.36-6.2 6.77z" fill="#677A64"/></g><g transform="translate(144 0)" fill="#2CEF4C"><path d="M22.25 12c0-1.43-.88-2.67-2.19-3.34.46-1.39.2-2.9-.81-3.91s-2.52-1.27-3.91-.81c-.66-1.31-1.91-2.19-3.34-2.19s-2.67.88-3.33 2.19c-1.4-.46-2.91-.2-3.92.81s-1.26 2.52-.8 3.91c-1.31.67-2.2 1.91-2.2 3.34s.89 2.67 2.2 3.34c-.46 1.39-.21 2.9.8 3.91s2.52 1.26 3.91.81c.67 1.31 1.91 2.19 3.34 2.19s2.68-.88 3.34-2.19c1.39.45 2.9.2 3.91-.81s1.27-2.52.81-3.91c1.31-.67 2.19-1.91 2.19-3.34zm-11.71 4.2L6.8 12.46l1.41-1.42 2.26 2.26 4.8-5.23 1.47 1.36-6.2 6.77z" fill="#2CEF4C"/></g><g transform="translate(184 0)" fill="#259DE9"><path d="M22.25 12c0-1.43-.88-2.67-2.19-3.34.46-1.39.2-2.9-.81-3.91s-2.52-1.27-3.91-.81c-.66-1.31-1.91-2.19-3.34-2.19s-2.67.88-3.33 2.19c-1.4-.46-2.91-.2-3.92.81s-1.26 2.52-.8 3.91c-1.31.67-2.2 1.91-2.2 3.34s.89 2.67 2.2 3.34c-.46 1.39-.21 2.9.8 3.91s2.52 1.26 3.91.81c.67 1.31 1.91 2.19 3.34 2.19s2.68-.88 3.34-2.19c1.39.45 2.9.2 3.91-.81s1.27-2.52.81-3.91c1.31-.67 2.19-1.91 2.19-3.34zm-11.71 4.2L6.8 12.46l1.41-1.42 2.26 2.26 4.8-5.23 1.47 1.36-6.2 6.77z" fill="#259DE9"/></g><g transform="translate(224 0)" fill="#C4B3BD"><path d="M22.25 12c0-1.43-.88-2.67-2.19-3.34.46-1.39.2-2.9-.81-3.91s-2.52-1.27-3.91-.81c-.66-1.31-1.91-2.19-3.34-2.19s-2.67.88-3.33 2.19c-1.4-.46-2.91-.2-3.92.81s-1.26 2.52-.8 3.91c-1.31.67-2.2 1.91-2.2 3.34s.89 2.67 2.2 3.34c-.46 1.39-.21 2.9.8 3.91s2.52 1.26 3.91.81c.67 1.31 1.91 2.19 3.34 2.19s2.68-.88 3.34-2.19c1.39.45 2.9.2 3.91-.81s1.27-2.52.81-3.91c1.31-.67 2.19-1.91 2.19-3.34zm-11.71 4.2L6.8 12.46l1.41-1.42 2.26 2.26 4.8-5.23 1.47 1.36-6.2 6.77z" fill="#C4B3BD"/></g><g transform="translate(264 0)" fill="#D89677"><path d="M22.25 12c0-1.43-.88-2.67-2.19-3.34.46-1.39.2-2.9-.81-3.91s-2.52-1.27-3.91-.81c-.66-1.31-1.91-2.19-3.34-2.19s-2.67.88-3.33 2.19c-1.4-.46-2.91-.2-3.92.81s-1.26 2.52-.8 3.91c-1.31.67-2.2 1.91-2.2 3.34s.89 2.67 2.2 3.34c-.46 1.39-.21 2.9.8 3.91s2.52 1.26 3.91.81c.67 1.31 1.91 2.19 3.34 2.19s2.68-.88 3.34-2.19c1.39.45 2.9.2 3.91-.81s1.27-2.52.81-3.91c1.31-.67 2.19-1.91 2.19-3.34zm-11.71 4.2L6.8 12.46l1.41-1.42 2.26 2.26 4.8-5.23 1.47 1.36-6.2 6.77z" fill="#D89677"/></g><g transform="translate(304 0)" fill="#9B12CE"><path d="M22.25 12c0-1.43-.88-2.67-2.19-3.34.46-1.39.2-2.9-.81-3.91s-2.52-1.27-3.91-.81c-.66-1.31-1.91-2.19-3.34-2.19s-2.67.88-3.33 2.19c-1.4-.46-2.91-.2-3.92.81s-1.26 2.52-.8 3.91c-1.31.67-2.2 1.91-2.2 3.34s.89 2.67 2.2 3.34c-.46 1.39-.21 2.9.8 3.91s2.52 1.26 3.91.81c.67 1.31 1.91 2.19 3.34 2.19s2.68-.88 3.34-2.19c1.39.45 2.9.2 3.91-.81s1.27-2.52.81-3.91c1.31-.67 2.19-1.91 2.19-3.34zm-11.71 4.2L6.8 12.46l1.41-1.42 2.26 2.26 4.8-5.23 1.47 1.36-6.2 6.77z" fill="#9B12CE"/></g><g transform="translate(344 0)" fill="#D36259"><path d="M22.25 12c0-1.43-.88-2.67-2.19-3.34.46-1.39.2-2.9-.81-3.91s-2.52-1.27-3.91-.81c-.66-1.31-1.91-2.19-3.34-2.19s-2.67.88-3.33 2.19c-1.4-.46-2.91-.2-3.92.81s-1.26 2.52-.8 3.91c-1.31.67-2.2 1.91-2.2 3.34s.89 2.67 2.2 3.34c-.46 1.39-.21 2.9.8 3.91s2.52 1.26 3.91.81c.67 1.31 1.91 2.19 3.34 2.19s2.68-.88 3.34-2.19c1.39.45 2.9.2 3.91-.81s1.27-2.52.81-3.91c1.31-.67 2.19-1.91 2.19-3.34zm-11.71 4.2L6.8 12.46l1.41-1.42 2.26 2.26 4.8-5.23 1.47 1.36-6.2 6.77z" fill="#D36259"/></g><g transform="translate(384 0)" fill="#1A6C4B"><path d="M22.25 12c0-1.43-.88-2.67-2.19-3.34.46-1.39.2-2.9-.81-3.91s-2.52-1.27-3.91-.81c-.66-1.31-1.91-2.19-3.34-2.19s-2.67.88-3.33 2.19c-1.4-.46-2.91-.2-3.92.81s-1.26 2.52-.8 3.91c-1.31.67-2.2 1.91-2.2 3.34s.89 2.67 2.2 3.34c-.46 1.39-.21 2.9.8 3.91s2.52 1.26 3.91.81c.67 1.31 1.91 2.19 3.34 2.19s2.68-.88 3.34-2.19c1.39.45 2.9.2 3.91-.81s1.27-2.52.81-3.91c1.31-.67 2.19-1.91 2.19-3.34zm-11.71 4.2L6.8 12.46l1.41-1.42 2.26 2.26 4.8-5.23 1.47 1.36-6.2 6.77z" fill="#1A6C4B"/></g></g><g transform="translate(0 440)"><g transform="translate(104 0)" fill="#E34D89"><path d="M22.25 12c0-1.43-.88-2.67-2.19-3.34.46-1.39.2-2.9-.81-3.91s-2.52-1.27-3.91-.81c-.66-1.31-1.91-2.19-3.34-2.19s-2.67.88-3.33 2.19c-1.4-.46-2.91-.2-3.92.81s-1.26 2.52-.8 3.91c-1.31.67-2.2 1.91-2.2 3.34s.89 2.67 2.2 3.34c-.46 1.39-.21 2.9.8 3.91s2.52 1.26 3.91.81c.67 1.31 1.91 2.19 3.34 2.19s2.68-.88 3.34-2.19c1.39.45 2.9.2 3.91-.81s1.27-2.52.81-3.91c1.31-.67 2.19-1.91 2.19-3.34zm-11.71 4.2L6.8 12.46l1.41-1.42 2.26 2.26 4.8-5.23 1.47 1.36-6.2 6.77z" fill="#E34D89"/></g><g transform="translate(144 0)" fill="#9C69B1"><path d="M22.25 12c0-1.43-.88-2.67-2.19-3.34.46-1.39.2-2.9-.81-3.91s-2.52-1.27-3.91-.81c-.66-1.31-1.91-2.19-3.34-2.19s-2.67.88-3.33 2.19c-1.4-.46-2.91-.2-3.92.81s-1.26 2.52-.8 3.91c-1.31.67-2.2 1.91-2.2 3.34s.89 2.67 2.2 3.34c-.46 1.39-.21 2.9.8 3.91s2.52 1.26 3.91.81c.67 1.31 1.91 2.19 3.34 2.19s2.68-.88 3.34-2.19c1.39.45 2.9.2 3.91-.81s1.27-2.52.81-3.91c1.31-.67 2.19-1.91 2.19-3.34zm-11.71 4.2L6.8 12.46l1.41-1.42 2.26 2.26 4.8-5.23 1.47 1.36-6.2 6.77z" fill="#9C69B1"/></g><g transform="translate(184 0)" fill="#338D36"><path d="M22.25 12c0-1.43-.88-2.67-2.19-3.34.46-1.39.2-2.9-.81-3.91s-2.52-1.27-3.91-.81c-.66-1.31-1.91-2.19-3.34-2.19s-2.67.88-3.33 2.19c-1.4-.46-2.91-.2-3.92.81s-1.26 2.52-.8 3.91c-1.31.67-2.2 1.91-2.2 3.34s.89 2.67 2.2 3.34c-.46 1.39-.21 2.9.8 3.91s2.52 1.26 3.91.81c.67 1.31 1.91 2.19 3.34 2.19s2.68-.88 3.34-2.19c1.39.45 2.9.2 3.91-.81s1.27-2.52.81-3.91c1.31-.67 2.19-1.91 2.19-3.34zm-11.71 4.2L6.8 12.46l1.41-1.42 2.26 2.26 4.8-5.23 1.47 1.36-6.2 6.77z" fill="#338D36"/></g><g transform="translate(224 0)" fill="#A671A6"><path d="M22.25 12c0-1.43-.88-2.67-2.19-3.34.46-1.39.2-2.9-.81-3.91s-2.52-1.27-3.91-.81c-.66-1.31-1.91-2.19-3.34-2.19s-2.67.88-3.33 2.19c-1.4-.46-2.91-.2-3.92.81s-1.26 2.52-.8 3.91c-1.31.67-2.2 1.91-2.2 3.34s.89 2.67 2.2 3.34c-.46 1.39-.21 2.9.8 3.91s2.52 1.26 3.91.81c.67 1.31 1.91 2.19 3.34 2.19s2.68-.88 3.34-2.19c1.39.45 2.9.2 3.91-.81s1.27-2.52.81-3.91c1.31-.67 2.19-1.91 2.19-3.34zm-11.71 4.2L6.8 12.46l1.41-1.42 2.26 2.26 4.8-5.23 1.47 1.36-6.2 6.77z" fill="#A671A6"/></g><g transform="translate(264 0)" fill="#94CE34"><path d="M22.25 12c0-1.43-.88-2.67-2.19-3.34.46-1.39.2-2.9-.81-3.91s-2.52-1.27-3.91-.81c-.66-1.31-1.91-2.19-3.34-2.19s-2.67.88-3.33 2.19c-1.4-.46-2.91-.2-3.92.81s-1.26 2.52-.8 3.91c-1.31.67-2.2 1.91-2.2 3.34s.89 2.67 2.2 3.34c-.46 1.39-.21 2.9.8 3.91s2.52 1.26 3.91.81c.67 1.31 1.91 2.19 3.34 2.19s2.68-.88 3.34-2.19c1.39.45 2.9.2 3.91-.81s1.27-2.52.81-3.91c1.31-.67 2.19-1.91 2.19-3.34zm-11.71 4.2L6.8 12.46l1.41-1.42 2.26 2.26 4.8-5.23 1.47 1.36-6.2 6.77z" fill="#94CE34"/></g><g transform="translate(304 0)" fill="#7299C6"><path d="M22.25 12c0-1.43-.88-2.67-2.19-3.34.46-1.39.2-2.9-.81-3.91s-2.52-1.27-3.91-.81c-.66-1.31-1.91-2.19-3.34-2.19s-2.67.88-3.33 2.19c-1.4-.46-2.91-.2-3.92.81s-1.26 2.52-.8 3.91c-1.31.67-2.2 1.91-2.2 3.34s.89 2.67 2.2 3.34c-.46 1.39-.21 2.9.8 3.91s2.52 1.26 3.91.81c.67 1.31 1.91 2.19 3.34 2.19s2.68-.88 3.34-2.19c1.39.45 2.9.2 3.91-.81s1.27-2.52.81-3.91c1.31-.67 2.19-1.91 2.19-3.34zm-11.71 4.2L6.8 12.46l1.41-1.42 2.26 2.26 4.8-5.23 1.47 1.36-6.2 6.77z" fill="#7299C6"/></g><g transform="translate(344 0)" fill="#AE5338"><path d="M22.25 12c0-1.43-.88-2.67-2.19-3.34.46-1.39.2-2.9-.81-3.91s-2.52-1.27-3.91-.81c-.66-1.31-1.91-2.19-3.34-2.19s-2.67.88-3.33 2.19c-1.4-.46-2.91-.2-3.92.81s-1.26 2.52-.8 3.91c-1.31.67-2.2 1.91-2.2 3.34s.89 2.67 2.2 3.34c-.46 1.39-.21 2.9.8 3.91s2.52 1.26 3.91.81c.67 1.31 1.91 2.19 3.34 2.19s2.68-.88 3.34-2.19c1.39.45 2.9.2 3.91-.81s1.27-2.52.81-3.91c1.31-.67 2.19-1.91 2.19-3.34zm-11.71 4.2L6.8 12.46l1.41-1.42 2.26 2.26 4.8-5.23 1.47 1.36-6.2 6.77z" fill="#AE5338"/></g><g transform="translate(384 0)" fill="#95CA67"><path d="M22.25 12c0-1.43-.88-2.67-2.19-3.34.46-1.39.2-2.9-.81-3.91s-2.52-1.27-3.91-.81c-.66-1.31-1.91-2.19-3.34-2.19s-2.67.88-3.33 2.19c-1.4-.46-2.91-.2-3.92.81s-1.26 2.52-.8 3.91c-1.31.67-2.2 1.91-2.2 3.34s.89 2.67 2.2 3.34c-.46 1.39-.21 2.9.8 3.91s2.52 1.26 3.91.81c.67 1.31 1.91 2.19 3.34 2.19s2.68-.88 3.34-2.19c1.39.45 2.9.2 3.91-.81s1.27-2.52.81-3.91c1.31-.67 2.19-1.91 2.19-3.34zm-11.71 4.2L6.8 12.46l1.41-1.42 2.26 2.26 4.8-5.23 1.47 1.36-6.2 6.77z" fill="#95CA67"/></g></g><g transform="translate(0 480)"><g transform="translate(104 0)" fill="#12B94C"><path d="M22.25 12c0-1.43-.88-2.67-2.19-3.34.46-1.39.2-2.9-.81-3.91s-2.52-1.27-3.91-.81c-.66-1.31-1.91-2.19-3.34-2.19s-2.67.88-3.33 2.19c-1.4-.46-2.91-.2-3.92.81s-1.26 2.52-.8 3.91c-1.31.67-2.2 1.91-2.2 3.34s.89 2.67 2.2 3.34c-.46 1.39-.21 2.9.8 3.91s2.52 1.26 3.91.81c.67 1.31 1.91 2.19 3.34 2.19s2.68-.88 3.34-2.19c1.39.45 2.9.2 3.91-.81s1.27-2.52.81-3.91c1.31-.67 2.19-1.91 2.19-3.34zm-11.71 4.2L6.8 12.46l1.41-1.42 2.26 2.26 4.8-5.23 1.47 1.36-6.2 6.77z" fill="#12B94C"/></g><g transform="translate(144 0)" fill="#625729"><path d="M22.25 12c0-1.43-.88-2.67-2.19-3.34.46-1.39.2-2.9-.81-3.91s-2.52-1.27-3.91-.81c-.66-1.31-1.91-2.19-3.34-2.19s-2.67.88-3.33 2.19c-1.4-.46-2.91-.2-3.92.81s-1.26 2.52-.8 3.91c-1.31.67-2.2 1.91-2.2 3.34s.89 2.67 2.2 3.34c-.46 1.39-.21 2.9.8 3.91s2.52 1.26 3.91.81c.67 1.31 1.91 2.19 3.34 2.19s2.68-.88 3.34-2.19c1.39.45 2.9.2 3.91-.81s1.27-2.52.81-3.91c1.31-.67 2.19-1.91 2.19-3.34zm-11.71 4.2L6.8 12.46l1.41-1.42 2.26 2.26 4.8-5.23 1.47 1.36-6.2 6.77z" fill="#625729"/></g><g transform="translate(184 0)" fill="#EC4AE5"><path d="M22.25 12c0-1.43-.88-2.67-2.19-3.34.46-1.39.2-2.9-.81-3.91s-2.52-1.27-3.91-.81c-.66-1.31-1.91-2.19-3.34-2.19s-2.67.88-3.33 2.19c-1.4-.46-2.91-.2-3.92.81s-1.26 2.52-.8 3.91c-1.31.67-2.2 1.91-2.2 3.34s.89 2.67 2.2 3.34c-.46 1.39-.21 2.9.8 3.91s2.52 1.26 3.91.81c.67 1.31 1.91 2.19 3.34 2.19s2.68-.88 3.34-2.19c1.39.45 2.9.2 3.91-.81s1.27-2.52.81-3.91c1.31-.67 2.19-1.91 2.19-3.34zm-11.71 4.2L6.8 12.46l1.41-1.42 2.26 2.26 4.8-5.23 1.47 1.36-6.2 6.77z" fill="#EC4AE5"/></g><g transform="translate(224 0)" fill="#FD895C"><path d="M22.25 12c0-1.43-.88-2.67-2.19-3.34.46-1.39.2-2.9-.81-3.91s-2.52-1.27-3.91-.81c-.66-1.31-1.91-2.19-3.34-2.19s-2.67.88-3.33 2.19c-1.4-.46-2.91-.2-3.92.81s-1.26 2.52-.8 3.91c-1.31.67-2.2 1.91-2.2 3.34s.89 2.67 2.2 3.34c-.46 1.39-.21 2.9.8 3.91s2.52 1.26 3.91.81c.67 1.31 1.91 2.19 3.34 2.19s2.68-.88 3.34-2.19c1.39.45 2.9.2 3.91-.81s1.27-2.52.81-3.91c1.31-.67 2.19-1.91 2.19-3.34zm-11.71 4.2L6.8 12.46l1.41-1.42 2.26 2.26 4.8-5.23 1.47 1.36-6.2 6.77z" fill="#FD895C"/></g><g transform="translate(264 0)" fill="#9FB12B"><path d="M22.25 12c0-1.43-.88-2.67-2.19-3.34.46-1.39.2-2.9-.81-3.91s-2.52-1.27-3.91-.81c-.66-1.31-1.91-2.19-3.34-2.19s-2.67.88-3.33 2.19c-1.4-.46-2.91-.2-3.92.81s-1.26 2.52-.8 3.91c-1.31.67-2.2 1.91-2.2 3.34s.89 2.67 2.2 3.34c-.46 1.39-.21 2.9.8 3.91s2.52 1.26 3.91.81c.67 1.31 1.91 2.19 3.34 2.19s2.68-.88 3.34-2.19c1.39.45 2.9.2 3.91-.81s1.27-2.52.81-3.91c1.31-.67 2.19-1.91 2.19-3.34zm-11.71 4.2L6.8 12.46l1.41-1.42 2.26 2.26 4.8-5.23 1.47 1.36-6.2 6.77z" fill="#9FB12B"/></g><g transform="translate(304 0)" fill="#F3F625"><path d="M22.25 12c0-1.43-.88-2.67-2.19-3.34.46-1.39.2-2.9-.81-3.91s-2.52-1.27-3.91-.81c-.66-1.31-1.91-2.19-3.34-2.19s-2.67.88-3.33 2.19c-1.4-.46-2.91-.2-3.92.81s-1.26 2.52-.8 3.91c-1.31.67-2.2 1.91-2.2 3.34s.89 2.67 2.2 3.34c-.46 1.39-.21 2.9.8 3.91s2.52 1.26 3.91.81c.67 1.31 1.91 2.19 3.34 2.19s2.68-.88 3.34-2.19c1.39.45 2.9.2 3.91-.81s1.27-2.52.81-3.91c1.31-.67 2.19-1.91 2.19-3.34zm-11.71 4.2L6.8 12.46l1.41-1.42 2.26 2.26 4.8-5.23 1.47 1.36-6.2 6.77z" fill="#F3F625"/></g><g transform="translate(344 0)" fill="#BE7EC4"><path d="M22.25 12c0-1.43-.88-2.67-2.19-3.34.46-1.39.2-2.9-.81-3.91s-2.52-1.27-3.91-.81c-.66-1.31-1.91-2.19-3.34-2.19s-2.67.88-3.33 2.19c-1.4-.46-2.91-.2-3.92.81s-1.26 2.52-.8 3.91c-1.31.67-2.2 1.91-2.2 3.34s.89 2.67 2.2 3.34c-.46 1.39-.21 2.9.8 3.91s2.52 1.26 3.91.81c.67 1.31 1.91 2.19 3.34 2.19s2.68-.88 3.34-2.19c1.39.45 2.9.2 3.91-.81s1.27-2.52.81-3.91c1.31-.67 2.19-1.91 2.19-3.34zm-11.71 4.2L6.8 12.46l1.41-1.42 2.26 2.26 4.8-5.23 1.47 1.36-6.2 6.77z" fill="#BE7EC4"/></g><g transform="translate(384 0)" fill="#97CFD8"><path d="M22.25 12c0-1.43-.88-2.67-2.19-3.34.46-1.39.2-2.9-.81-3.91s-2.52-1.27-3.91-.81c-.66-1.31-1.91-2.19-3.34-2.19s-2.67.88-3.33 2.19c-1.4-.46-2.91-.2-3.92.81s-1.26 2.52-.8 3.91c-1.31.67-2.2 1.91-2.2 3.34s.89 2.67 2.2 3.34c-.46 1.39-.21 2.9.8 3.91s2.52 1.26 3.91.81c.67 1.31 1.91 2.19 3.34 2.19s2.68-.88 3.34-2.19c1.39.45 2.9.2 3.91-.81s1.27-2.52.81-3.91c1.31-.67 2.19-1.91 2.19-3.34zm-11.71 4.2L6.8 12.46l1.41-1.42 2.26 2.26 4.8-5.23 1.47 1.36-6.2 6.77z" fill="#97CFD8"/></g></g><g transform="translate(0 520)"><g transform="translate(104 0)" fill="#B2F9FB"><path d="M22.25 12c0-1.43-.88-2.67-2.19-3.34.46-1.39.2-2.9-.81-3.91s-2.52-1.27-3.91-.81c-.66-1.31-1.91-2.19-3.34-2.19s-2.67.88-3.33 2.19c-1.4-.46-2.91-.2-3.92.81s-1.26 2.52-.8 3.91c-1.31.67-2.2 1.91-2.2 3.34s.89 2.67 2.2 3.34c-.46 1.39-.21 2.9.8 3.91s2.52 1.26 3.91.81c.67 1.31 1.91 2.19 3.34 2.19s2.68-.88 3.34-2.19c1.39.45 2.9.2 3.91-.81s1.27-2.52.81-3.91c1.31-.67 2.19-1.91 2.19-3.34zm-11.71 4.2L6.8 12.46l1.41-1.42 2.26 2.26 4.8-5.23 1.47 1.36-6.2 6.77z" fill="#B2F9FB"/></g><g transform="translate(144 0)" fill="#765F3F"><path d="M22.25 12c0-1.43-.88-2.67-2.19-3.34.46-1.39.2-2.9-.81-3.91s-2.52-1.27-3.91-.81c-.66-1.31-1.91-2.19-3.34-2.19s-2.67.88-3.33 2.19c-1.4-.46-2.91-.2-3.92.81s-1.26 2.52-.8 3.91c-1.31.67-2.2 1.91-2.2 3.34s.89 2.67 2.2 3.34c-.46 1.39-.21 2.9.8 3.91s2.52 1.26 3.91.81c.67 1.31 1.91 2.19 3.34 2.19s2.68-.88 3.34-2.19c1.39.45 2.9.2 3.91-.81s1.27-2.52.81-3.91c1.31-.67 2.19-1.91 2.19-3.34zm-11.71 4.2L6.8 12.46l1.41-1.42 2.26 2.26 4.8-5.23 1.47 1.36-6.2 6.77z" fill="#765F3F"/></g><g transform="translate(184 0)" fill="#EECBE7"><path d="M22.25 12c0-1.43-.88-2.67-2.19-3.34.46-1.39.2-2.9-.81-3.91s-2.52-1.27-3.91-.81c-.66-1.31-1.91-2.19-3.34-2.19s-2.67.88-3.33 2.19c-1.4-.46-2.91-.2-3.92.81s-1.26 2.52-.8 3.91c-1.31.67-2.2 1.91-2.2 3.34s.89 2.67 2.2 3.34c-.46 1.39-.21 2.9.8 3.91s2.52 1.26 3.91.81c.67 1.31 1.91 2.19 3.34 2.19s2.68-.88 3.34-2.19c1.39.45 2.9.2 3.91-.81s1.27-2.52.81-3.91c1.31-.67 2.19-1.91 2.19-3.34zm-11.71 4.2L6.8 12.46l1.41-1.42 2.26 2.26 4.8-5.23 1.47 1.36-6.2 6.77z" fill="#EECBE7"/></g><g transform="translate(224 0)" fill="#9DD97C"><path d="M22.25 12c0-1.43-.88-2.67-2.19-3.34.46-1.39.2-2.9-.81-3.91s-2.52-1.27-3.91-.81c-.66-1.31-1.91-2.19-3.34-2.19s-2.67.88-3.33 2.19c-1.4-.46-2.91-.2-3.92.81s-1.26 2.52-.8 3.91c-1.31.67-2.2 1.91-2.2 3.34s.89 2.67 2.2 3.34c-.46 1.39-.21 2.9.8 3.91s2.52 1.26 3.91.81c.67 1.31 1.91 2.19 3.34 2.19s2.68-.88 3.34-2.19c1.39.45 2.9.2 3.91-.81s1.27-2.52.81-3.91c1.31-.67 2.19-1.91 2.19-3.34zm-11.71 4.2L6.8 12.46l1.41-1.42 2.26 2.26 4.8-5.23 1.47 1.36-6.2 6.77z" fill="#9DD97C"/></g><g transform="translate(264 0)" fill="#F3BB2F"><path d="M22.25 12c0-1.43-.88-2.67-2.19-3.34.46-1.39.2-2.9-.81-3.91s-2.52-1.27-3.91-.81c-.66-1.31-1.91-2.19-3.34-2.19s-2.67.88-3.33 2.19c-1.4-.46-2.91-.2-3.92.81s-1.26 2.52-.8 3.91c-1.31.67-2.2 1.91-2.2 3.34s.89 2.67 2.2 3.34c-.46 1.39-.21 2.9.8 3.91s2.52 1.26 3.91.81c.67 1.31 1.91 2.19 3.34 2.19s2.68-.88 3.34-2.19c1.39.45 2.9.2 3.91-.81s1.27-2.52.81-3.91c1.31-.67 2.19-1.91 2.19-3.34zm-11.71 4.2L6.8 12.46l1.41-1.42 2.26 2.26 4.8-5.23 1.47 1.36-6.2 6.77z" fill="#F3BB2F"/></g><g transform="translate(304 0)" fill="#DE7765"><path d="M22.25 12c0-1.43-.88-2.67-2.19-3.34.46-1.39.2-2.9-.81-3.91s-2.52-1.27-3.91-.81c-.66-1.31-1.91-2.19-3.34-2.19s-2.67.88-3.33 2.19c-1.4-.46-2.91-.2-3.92.81s-1.26 2.52-.8 3.91c-1.31.67-2.2 1.91-2.2 3.34s.89 2.67 2.2 3.34c-.46 1.39-.21 2.9.8 3.91s2.52 1.26 3.91.81c.67 1.31 1.91 2.19 3.34 2.19s2.68-.88 3.34-2.19c1.39.45 2.9.2 3.91-.81s1.27-2.52.81-3.91c1.31-.67 2.19-1.91 2.19-3.34zm-11.71 4.2L6.8 12.46l1.41-1.42 2.26 2.26 4.8-5.23 1.47 1.36-6.2 6.77z" fill="#DE7765"/></g><g transform="translate(344 0)" fill="#DBCEEC"><path d="M22.25 12c0-1.43-.88-2.67-2.19-3.34.46-1.39.2-2.9-.81-3.91s-2.52-1.27-3.91-.81c-.66-1.31-1.91-2.19-3.34-2.19s-2.67.88-3.33 2.19c-1.4-.46-2.91-.2-3.92.81s-1.26 2.52-.8 3.91c-1.31.67-2.2 1.91-2.2 3.34s.89 2.67 2.2 3.34c-.46 1.39-.21 2.9.8 3.91s2.52 1.26 3.91.81c.67 1.31 1.91 2.19 3.34 2.19s2.68-.88 3.34-2.19c1.39.45 2.9.2 3.91-.81s1.27-2.52.81-3.91c1.31-.67 2.19-1.91 2.19-3.34zm-11.71 4.2L6.8 12.46l1.41-1.42 2.26 2.26 4.8-5.23 1.47 1.36-6.2 6.77z" fill="#DBCEEC"/></g><g transform="translate(384 0)" fill="#5B79DD"><path d="M22.25 12c0-1.43-.88-2.67-2.19-3.34.46-1.39.2-2.9-.81-3.91s-2.52-1.27-3.91-.81c-.66-1.31-1.91-2.19-3.34-2.19s-2.67.88-3.33 2.19c-1.4-.46-2.91-.2-3.92.81s-1.26 2.52-.8 3.91c-1.31.67-2.2 1.91-2.2 3.34s.89 2.67 2.2 3.34c-.46 1.39-.21 2.9.8 3.91s2.52 1.26 3.91.81c.67 1.31 1.91 2.19 3.34 2.19s2.68-.88 3.34-2.19c1.39.45 2.9.2 3.91-.81s1.27-2.52.81-3.91c1.31-.67 2.19-1.91 2.19-3.34zm-11.71 4.2L6.8 12.46l1.41-1.42 2.26 2.26 4.8-5.23 1.47 1.36-6.2 6.77z" fill="#5B79DD"/></g></g><g transform="translate(0 560)"><g transform="translate(104 0)" fill="#AB6F3B"><path d="M22.25 12c0-1.43-.88-2.67-2.19-3.34.46-1.39.2-2.9-.81-3.91s-2.52-1.27-3.91-.81c-.66-1.31-1.91-2.19-3.34-2.19s-2.67.88-3.33 2.19c-1.4-.46-2.91-.2-3.92.81s-1.26 2.52-.8 3.91c-1.31.67-2.2 1.91-2.2 3.34s.89 2.67 2.2 3.34c-.46 1.39-.21 2.9.8 3.91s2.52 1.26 3.91.81c.67 1.31 1.91 2.19 3.34 2.19s2.68-.88 3.34-2.19c1.39.45 2.9.2 3.91-.81s1.27-2.52.81-3.91c1.31-.67 2.19-1.91 2.19-3.34zm-11.71 4.2L6.8 12.46l1.41-1.42 2.26 2.26 4.8-5.23 1.47 1.36-6.2 6.77z" fill="#AB6F3B"/></g><g transform="translate(144 0)" fill="#756DE7"><path d="M22.25 12c0-1.43-.88-2.67-2.19-3.34.46-1.39.2-2.9-.81-3.91s-2.52-1.27-3.91-.81c-.66-1.31-1.91-2.19-3.34-2.19s-2.67.88-3.33 2.19c-1.4-.46-2.91-.2-3.92.81s-1.26 2.52-.8 3.91c-1.31.67-2.2 1.91-2.2 3.34s.89 2.67 2.2 3.34c-.46 1.39-.21 2.9.8 3.91s2.52 1.26 3.91.81c.67 1.31 1.91 2.19 3.34 2.19s2.68-.88 3.34-2.19c1.39.45 2.9.2 3.91-.81s1.27-2.52.81-3.91c1.31-.67 2.19-1.91 2.19-3.34zm-11.71 4.2L6.8 12.46l1.41-1.42 2.26 2.26 4.8-5.23 1.47 1.36-6.2 6.77z" fill="#756DE7"/></g><g transform="translate(184 0)" fill="#6EADBC"><path d="M22.25 12c0-1.43-.88-2.67-2.19-3.34.46-1.39.2-2.9-.81-3.91s-2.52-1.27-3.91-.81c-.66-1.31-1.91-2.19-3.34-2.19s-2.67.88-3.33 2.19c-1.4-.46-2.91-.2-3.92.81s-1.26 2.52-.8 3.91c-1.31.67-2.2 1.91-2.2 3.34s.89 2.67 2.2 3.34c-.46 1.39-.21 2.9.8 3.91s2.52 1.26 3.91.81c.67 1.31 1.91 2.19 3.34 2.19s2.68-.88 3.34-2.19c1.39.45 2.9.2 3.91-.81s1.27-2.52.81-3.91c1.31-.67 2.19-1.91 2.19-3.34zm-11.71 4.2L6.8 12.46l1.41-1.42 2.26 2.26 4.8-5.23 1.47 1.36-6.2 6.77z" fill="#6EADBC"/></g><g transform="translate(224 0)" fill="#CDD5B7"><path d="M22.25 12c0-1.43-.88-2.67-2.19-3.34.46-1.39.2-2.9-.81-3.91s-2.52-1.27-3.91-.81c-.66-1.31-1.91-2.19-3.34-2.19s-2.67.88-3.33 2.19c-1.4-.46-2.91-.2-3.92.81s-1.26 2.52-.8 3.91c-1.31.67-2.2 1.91-2.2 3.34s.89 2.67 2.2 3.34c-.46 1.39-.21 2.9.8 3.91s2.52 1.26 3.91.81c.67 1.31 1.91 2.19 3.34 2.19s2.68-.88 3.34-2.19c1.39.45 2.9.2 3.91-.81s1.27-2.52.81-3.91c1.31-.67 2.19-1.91 2.19-3.34zm-11.71 4.2L6.8 12.46l1.41-1.42 2.26 2.26 4.8-5.23 1.47 1.36-6.2 6.77z" fill="#CDD5B7"/></g><g transform="translate(264 0)" fill="#19BAB6"><path d="M22.25 12c0-1.43-.88-2.67-2.19-3.34.46-1.39.2-2.9-.81-3.91s-2.52-1.27-3.91-.81c-.66-1.31-1.91-2.19-3.34-2.19s-2.67.88-3.33 2.19c-1.4-.46-2.91-.2-3.92.81s-1.26 2.52-.8 3.91c-1.31.67-2.2 1.91-2.2 3.34s.89 2.67 2.2 3.34c-.46 1.39-.21 2.9.8 3.91s2.52 1.26 3.91.81c.67 1.31 1.91 2.19 3.34 2.19s2.68-.88 3.34-2.19c1.39.45 2.9.2 3.91-.81s1.27-2.52.81-3.91c1.31-.67 2.19-1.91 2.19-3.34zm-11.71 4.2L6.8 12.46l1.41-1.42 2.26 2.26 4.8-5.23 1.47 1.36-6.2 6.77z" fill="#19BAB6"/></g><g transform="translate(304 0)" fill="#C33756"><path d="M22.25 12c0-1.43-.88-2.67-2.19-3.34.46-1.39.2-2.9-.81-3.91s-2.52-1.27-3.91-.81c-.66-1.31-1.91-2.19-3.34-2.19s-2.67.88-3.33 2.19c-1.4-.46-2.91-.2-3.92.81s-1.26 2.52-.8 3.91c-1.31.67-2.2 1.91-2.2 3.34s.89 2.67 2.2 3.34c-.46 1.39-.21 2.9.8 3.91s2.52 1.26 3.91.81c.67 1.31 1.91 2.19 3.34 2.19s2.68-.88 3.34-2.19c1.39.45 2.9.2 3.91-.81s1.27-2.52.81-3.91c1.31-.67 2.19-1.91 2.19-3.34zm-11.71 4.2L6.8 12.46l1.41-1.42 2.26 2.26 4.8-5.23 1.47 1.36-6.2 6.77z" fill="#C33756"/></g><g transform="translate(344 0)" fill="#3866EA"><path d="M22.25 12c0-1.43-.88-2.67-2.19-3.34.46-1.39.2-2.9-.81-3.91s-2.52-1.27-3.91-.81c-.66-1.31-1.91-2.19-3.34-2.19s-2.67.88-3.33 2.19c-1.4-.46-2.91-.2-3.92.81s-1.26 2.52-.8 3.91c-1.31.67-2.2 1.91-2.2 3.34s.89 2.67 2.2 3.34c-.46 1.39-.21 2.9.8 3.91s2.52 1.26 3.91.81c.67 1.31 1.91 2.19 3.34 2.19s2.68-.88 3.34-2.19c1.39.45 2.9.2 3.91-.81s1.27-2.52.81-3.91c1.31-.67 2.19-1.91 2.19-3.34zm-11.71 4.2L6.8 12.46l1.41-1.42 2.26 2.26 4.8-5.23 1.47 1.36-6.2 6.77z" fill="#3866EA"/></g><g transform="translate(384 0)" fill="#70CDD"><path d="M22.25 12c0-1.43-.88-2.67-2.19-3.34.46-1.39.2-2.9-.81-3.91s-2.52-1.27-3.91-.81c-.66-1.31-1.91-2.19-3.34-2.19s-2.67.88-3.33 2.19c-1.4-.46-2.91-.2-3.92.81s-1.26 2.52-.8 3.91c-1.31.67-2.2 1.91-2.2 3.34s.89 2.67 2.2 3.34c-.46 1.39-.21 2.9.8 3.91s2.52 1.26 3.91.81c.67 1.31 1.91 2.19 3.34 2.19s2.68-.88 3.34-2.19c1.39.45 2.9.2 3.91-.81s1.27-2.52.81-3.91c1.31-.67 2.19-1.91 2.19-3.34zm-11.71 4.2L6.8 12.46l1.41-1.42 2.26 2.26 4.8-5.23 1.47 1.36-6.2 6.77z" fill="#70CDD"/></g></g></svg>