<?xml version="1.0" encoding="UTF-8"?><svg aria-hidden="true" version="1.1" viewBox="0 0 512 688" xmlns="http://www.w3.org/2000/svg" width="400" height="400"><defs><radialGradient id="SphereShade" cx="0.5" cy="0.5" r=".8" fx="0.35" fy="0.25"><stop offset="0"  stop-opacity="0"  /><stop offset=".3" stop-opacity="0.1"/><stop offset=".5" stop-opacity="0.3"/><stop offset=".9"  stop-opacity="1"  /></radialGradient></defs><rect width="100%" height="100%" fill="#EEEEEE" /><g transform="translate(0 104)"><g transform="translate(144 0)"><circle cx="12" cy="12" r="12" fill="#FE7BCF"/><circle cx="12" cy="12" r="12" fill="url(#SphereShade)"/></g></g><g transform="translate(0 144)"><g transform="translate(104 0)"><circle cx="12" cy="12" r="12" fill="#D4657F"/><circle cx="12" cy="12" r="12" fill="url(#SphereShade)"/></g><g transform="translate(184 0)"><circle cx="12" cy="12" r="12" fill="#135195"/><circle cx="12" cy="12" r="12" fill="url(#SphereShade)"/></g><g transform="translate(384 0)"><circle cx="12" cy="12" r="12" fill="#67BC26"/><circle cx="12" cy="12" r="12" fill="url(#SphereShade)"/></g></g><g transform="translate(0 184)"><g transform="translate(144 0)"><circle cx="12" cy="12" r="12" fill="#259EF0"/><circle cx="12" cy="12" r="12" fill="url(#SphereShade)"/></g><g transform="translate(224 0)"><circle cx="12" cy="12" r="12" fill="#94967B"/><circle cx="12" cy="12" r="12" fill="url(#SphereShade)"/></g><g transform="translate(344 0)"><circle cx="12" cy="12" r="12" fill="#F44A4B"/><circle cx="12" cy="12" r="12" fill="url(#SphereShade)"/></g><g transform="translate(384 0)"><circle cx="12" cy="12" r="12" fill="#1E8949"/><circle cx="12" cy="12" r="12" fill="url(#SphereShade)"/></g></g><g transform="translate(0 224)"><g transform="translate(184 0)"><circle cx="12" cy="12" r="12" fill="#990F44"/><circle cx="12" cy="12" r="12" fill="url(#SphereShade)"/></g><g transform="translate(224 0)"><circle cx="12" cy="12" r="12" fill="#F321E8"/><circle cx="12" cy="12" r="12" fill="url(#SphereShade)"/></g><g transform="translate(264 0)"><circle cx="12" cy="12" r="12" fill="#7E643D"/><circle cx="12" cy="12" r="12" fill="url(#SphereShade)"/></g><g transform="translate(344 0)"><circle cx="12" cy="12" r="12" fill="#39F990"/><circle cx="12" cy="12" r="12" fill="url(#SphereShade)"/></g></g><g transform="translate(0 264)"><g transform="translate(304 0)"><circle cx="12" cy="12" r="12" fill="#52CFF1"/><circle cx="12" cy="12" r="12" fill="url(#SphereShade)"/></g></g><text x="50%" text-anchor="middle" style="white-space: pre; fill: #111111; font-family: Arial, sans-serif; font-size: 33.3px;" y="353">On Chain Base, Introduced</text><g transform="translate(0 400)"><g transform="translate(104 0)"><circle cx="12" cy="12" r="12" fill="#9BA967"/><circle cx="12" cy="12" r="12" fill="url(#SphereShade)"/></g><g transform="translate(144 0)"><circle cx="12" cy="12" r="12" fill="#73752C"/><circle cx="12" cy="12" r="12" fill="url(#SphereShade)"/></g><g transform="translate(184 0)"><circle cx="12" cy="12" r="12" fill="#2E6EA5"/><circle cx="12" cy="12" r="12" fill="url(#SphereShade)"/></g><g transform="translate(224 0)"><circle cx="12" cy="12" r="12" fill="#C5CDD4"/><circle cx="12" cy="12" r="12" fill="url(#SphereShade)"/></g></g><g transform="translate(0 440)"><g transform="translate(224 0)"><circle cx="12" cy="12" r="12" fill="#1E1737"/><circle cx="12" cy="12" r="12" fill="url(#SphereShade)"/></g><g transform="translate(384 0)"><circle cx="12" cy="12" r="12" fill="#BFD1E1"/><circle cx="12" cy="12" r="12" fill="url(#SphereShade)"/></g></g><g transform="translate(0 480)"><g transform="translate(224 0)"><circle cx="12" cy="12" r="12" fill="#A21BFD"/><circle cx="12" cy="12" r="12" fill="url(#SphereShade)"/></g><g transform="translate(264 0)"><circle cx="12" cy="12" r="12" fill="#54437F"/><circle cx="12" cy="12" r="12" fill="url(#SphereShade)"/></g><g transform="translate(344 0)"><circle cx="12" cy="12" r="12" fill="#C9510D"/><circle cx="12" cy="12" r="12" fill="url(#SphereShade)"/></g></g><g transform="translate(0 520)"><g transform="translate(144 0)"><circle cx="12" cy="12" r="12" fill="#9164A8"/><circle cx="12" cy="12" r="12" fill="url(#SphereShade)"/></g><g transform="translate(184 0)"><circle cx="12" cy="12" r="12" fill="#B22C95"/><circle cx="12" cy="12" r="12" fill="url(#SphereShade)"/></g><g transform="translate(224 0)"><circle cx="12" cy="12" r="12" fill="#B64592"/><circle cx="12" cy="12" r="12" fill="url(#SphereShade)"/></g><g transform="translate(264 0)"><circle cx="12" cy="12" r="12" fill="#36C8B2"/><circle cx="12" cy="12" r="12" fill="url(#SphereShade)"/></g><g transform="translate(304 0)"><circle cx="12" cy="12" r="12" fill="#E6D916"/><circle cx="12" cy="12" r="12" fill="url(#SphereShade)"/></g><g transform="translate(344 0)"><circle cx="12" cy="12" r="12" fill="#7CDB22"/><circle cx="12" cy="12" r="12" fill="url(#SphereShade)"/></g></g><g transform="translate(0 560)"><g transform="translate(104 0)"><circle cx="12" cy="12" r="12" fill="#A5F36C"/><circle cx="12" cy="12" r="12" fill="url(#SphereShade)"/></g><g transform="translate(144 0)"><circle cx="12" cy="12" r="12" fill="#74BE6D"/><circle cx="12" cy="12" r="12" fill="url(#SphereShade)"/></g><g transform="translate(184 0)"><circle cx="12" cy="12" r="12" fill="#4E97CD"/><circle cx="12" cy="12" r="12" fill="url(#SphereShade)"/></g><g transform="translate(224 0)"><circle cx="12" cy="12" r="12" fill="#29D2F9"/><circle cx="12" cy="12" r="12" fill="url(#SphereShade)"/></g><g transform="translate(304 0)"><circle cx="12" cy="12" r="12" fill="#8CA74B"/><circle cx="12" cy="12" r="12" fill="url(#SphereShade)"/></g><g transform="translate(344 0)"><circle cx="12" cy="12" r="12" fill="#3194E9"/><circle cx="12" cy="12" r="12" fill="url(#SphereShade)"/></g><g transform="translate(384 0)"><circle cx="12" cy="12" r="12" fill="#6329D"/><circle cx="12" cy="12" r="12" fill="url(#SphereShade)"/></g></g></svg>